:SAMPLES-PER-SECOND 30
:FULLY-SPECIFIED
:DEGREES
601
root  -7.10827 40.2117 33.6274 -177.28 -2.46393 176.306
RightUpLeg  -8.84259 -15.7571 -13.9515
RightLeg  27.5982 -8.08065 -4.75694
RightFoot  4.62248 -2.88154 20.5623
RightToes  -1.74624e-010 0 -3.6325e-017
Spine  6.33295 -0.187702 -5.47682
Spine1  18.9364 -2.46346 4.74637
HEad  -18.4162 -2.07288 1.19447
LeftShoulder1  1.06833 -1.63773 -13.8206
LeftArm  10.7849 8.35087 -59.6628
LeftForeArm  125.3 -76.2888 -131.431
LeftHand  -2.11226 -3.74298 26.6903
RightShoulder  1.05297 1.23784 15.5025
RightArm  8.72226 -14.918 52.8474
RightForeArm  137.098 73.4263 142.253
RightHand  -2.54348 7.8126 -22.4241
LeftUpLeg  -7.44829 5.83961 6.52041
LeftLeg  14.6608 -1.04334 -0.334087
LeftFoot  0.937917 1.67092 -15.5153
LeftToes  -5.82109e-011 1.10366e-010 -8.03124e-011
602
root  -6.79014 40.4934 33.5867 -175.947 -2.46451 176.473
RightUpLeg  -7.20755 -15.7499 -12.0646
RightLeg  22.86 -11.3313 -5.41601
RightFoot  3.97656 -2.75479 20.4977
RightToes  -1.74624e-010 0 -3.6325e-017
Spine  5.19227 -0.396646 -4.49342
Spine1  18.2831 -2.10046 3.94586
HEad  -18.4216 -1.9198 1.87345
LeftShoulder1  0.992727 -1.34376 -13.4919
LeftArm  12.2942 11.8826 -60.4519
LeftForeArm  128.576 -75.6236 -134.524
LeftHand  -2.22451 -4.08997 27.0634
RightShoulder  0.956415 0.882309 15.0606
RightArm  7.73484 -16.0941 53.3575
RightForeArm  140.111 72.3368 145.121
RightHand  -2.57027 7.73942 -22.7599
LeftUpLeg  -7.96424 5.89626 6.99965
LeftLeg  12.3405 -0.66674 -0.308851
LeftFoot  4.15695 2.1765 -16.1106
LeftToes  -5.82109e-011 1.10366e-010 -8.03124e-011
603
root  -6.50389 40.4596 33.572 -175.185 -2.03947 176.13
RightUpLeg  -6.23581 -15.6561 -11.56
RightLeg  19.7517 -12.8521 -5.22944
RightFoot  1.36591 -2.36814 21.1383
RightToes  -1.74624e-010 0 -3.6325e-017
Spine  4.42829 -0.604305 -3.52131
Spine1  17.785 -1.61256 2.54021
HEad  -18.259 -1.5175 2.05489
LeftShoulder1  0.944829 -1.17803 -13.1639
LeftArm  14.1101 14.6819 -60.3915
LeftForeArm  129.469 -75.5167 -135.062
LeftHand  -2.38467 -4.47227 27.8553
RightShoulder  0.800881 0.30178 14.2385
RightArm  7.45359 -15.9881 53.9469
RightForeArm  142.193 71.0925 147.781
RightHand  -2.41299 7.37677 -21.9954
LeftUpLeg  -8.81788 4.8237 6.74947
LeftLeg  12.5109 2.14829 0.654042
LeftFoot  4.60158 2.20202 -15.8356
LeftToes  -5.82109e-011 1.10366e-010 -8.03124e-011
604
root  -6.29705 40.2396 33.6106 -175.405 -0.665054 175.767
RightUpLeg  -6.05466 -14.0779 -11.7172
RightLeg  19.395 -12.1058 -4.70717
RightFoot  -1.2915 -1.90416 21.3012
RightToes  -1.74624e-010 0 -3.6325e-017
Spine  4.66349 -0.59843 -2.13804
Spine1  17.4506 -0.747443 0.466364
HEad  -18.1971 -0.892439 1.77691
LeftShoulder1  0.930493 -1.07277 -13.3301
LeftArm  15.9744 16.1961 -60.0301
LeftForeArm  126.828 -76.2309 -131.979
LeftHand  -2.54187 -4.67773 29.0247
RightShoulder  0.671654 -0.226181 13.6535
RightArm  7.51313 -14.6352 53.7358
RightForeArm  143.83 69.9407 149.919
RightHand  -2.15825 6.80685 -20.6391
LeftUpLeg  -9.20616 3.44193 6.3017
LeftLeg  14.6525 5.71808 2.02128
LeftFoot  2.68694 1.87347 -15.2844
LeftToes  -5.82109e-011 1.10366e-010 -8.03124e-011
605
root  -6.19063 40.0105 33.6806 -176.189 1.89919 176.005
RightUpLeg  -6.44133 -12.2633 -11.3713
RightLeg  20.4645 -10.6642 -4.54385
RightFoot  -3.24047 -1.47371 20.284
RightToes  -1.74624e-010 0 -3.6325e-017
Spine  5.51956 -0.338066 -0.172743
Spine1  17.5135 0.464268 -1.85963
HEad  -18.4541 -0.0470399 1.42437
LeftShoulder1  0.93641 -0.957648 -14.0507
LeftArm  17.3214 16.6037 -60.3994
LeftForeArm  120.407 -77.5558 -124.661
LeftHand  -2.75464 -4.7956 30.9713
RightShoulder  0.639915 -0.354822 13.4627
RightArm  7.15082 -12.7999 53.0797
RightForeArm  144.182 69.5342 150.583
RightHand  -1.96134 6.30478 -19.6049
LeftUpLeg  -8.91545 3.57696 6.17957
LeftLeg  17.2774 6.15805 2.45646
LeftFoot  -0.651292 1.41897 -15.058
LeftToes  -5.82109e-011 1.10366e-010 -8.03124e-011
606
root  -6.14416 39.8318 33.7319 -176.595 4.86497 176.509
RightUpLeg  -7.74068 -11.8247 -10.8675
RightLeg  22.2928 -9.17308 -4.33193
RightFoot  -4.73572 -1.16062 19.4064
RightToes  -1.74624e-010 0 -3.6325e-017
Spine  6.17684 -0.0503433 0.680339
Spine1  17.8307 1.25267 -3.1994
HEad  -18.9365 1.1866 1.13026
LeftShoulder1  0.96076 -0.927893 -14.8044
LeftArm  17.5902 16.5714 -62.2142
LeftForeArm  110.442 -78.8061 -113.967
LeftHand  -3.01901 -4.94637 33.3096
RightShoulder  0.663788 -0.223794 13.3629
RightArm  6.38025 -11.4622 53.0062
RightForeArm  142.363 70.2556 149.204
RightHand  -2.00292 6.37228 -19.8807
LeftUpLeg  -8.58756 5.46995 6.061
LeftLeg  19.0512 3.37307 1.626
LeftFoot  -4.34668 0.938165 -14.8381
LeftToes  -5.82109e-011 1.10366e-010 -8.03124e-011
607
root  -6.10676 39.5857 33.7546 -176.452 6.95647 176.622
RightUpLeg  -10.896 -13.3028 -10.9357
RightLeg  26.8052 -5.80867 -3.34673
RightFoot  -5.34704 -1.09396 19.9773
RightToes  -1.74624e-010 0 -3.6325e-017
Spine  6.88661 0.0173181 -1.33063
Spine1  17.3906 0.687586 -2.09668
HEad  -19.1751 2.92426 0.639988
LeftShoulder1  1.00038 -1.07031 -15.0191
LeftArm  16.863 16.4944 -64.9993
LeftForeArm  101.595 -79.3535 -105.562
LeftHand  -3.20309 -5.13276 34.6282
RightShoulder  0.664812 -0.189322 13.1607
RightArm  5.71789 -11.3547 53.7468
RightForeArm  138.746 71.6032 146.342
RightHand  -2.25864 6.90845 -21.3911
LeftUpLeg  -8.80805 6.95785 5.64701
LeftLeg  20.2948 1.39018 0.905889
LeftFoot  -7.92995 0.482974 -14.5673
LeftToes  -5.82109e-011 1.10366e-010 -8.03124e-011
608
root  -6.01581 39.0735 33.8046 -176.738 7.75389 176.104
RightUpLeg  -15.8349 -14.4585 -11.7848
RightLeg  35.8912 -2.57119 -2.27093
RightFoot  -4.30297 -1.30347 20.5375
RightToes  -1.74624e-010 0 -3.6325e-017
Spine  8.83944 -0.0231933 -6.2509
Spine1  15.5843 -1.17756 1.54009
HEad  -19.0064 4.90586 -0.0975506
LeftShoulder1  1.02287 -1.23391 -14.7107
LeftArm  15.9777 15.7824 -67.0858
LeftForeArm  101.77 -79.2465 -106.588
LeftHand  -3.2829 -5.37086 34.6975
RightShoulder  0.652882 -0.237423 13.0867
RightArm  4.87705 -12.8528 54.8487
RightForeArm  135.444 72.7434 143.527
RightHand  -2.49987 7.27401 -22.9429
LeftUpLeg  -9.45164 6.60187 5.16459
LeftLeg  22.7919 1.71261 1.14214
LeftFoot  -12.0506 -0.0253766 -15.0407
LeftToes  -5.82109e-011 1.10366e-010 -8.03124e-011
609
root  -5.81104 38.2753 33.9295 -178.279 7.74203 175.323
RightUpLeg  -20.6371 -13.786 -13.2558
RightLeg  47.2038 -2.9963 -3.93455
RightFoot  -2.44959 -1.52006 19.1857
RightToes  -1.74624e-010 0 -3.6325e-017
Spine  11.8775 0.171238 -12.0193
Spine1  13.9301 -3.26186 5.7753
HEad  -18.9731 6.64987 -0.625651
LeftShoulder1  0.983329 -1.1205 -14.3517
LeftArm  15.5104 12.7086 -66.881
LeftForeArm  109.677 -78.7646 -114.003
LeftHand  -3.42528 -5.67167 35.1731
RightShoulder  0.686188 -0.140169 13.535
RightArm  2.78356 -15.7005 56.4288
RightForeArm  133.093 73.6888 140.949
RightHand  -2.61407 7.33324 -23.8362
LeftUpLeg  -10.0206 5.00183 5.12413
LeftLeg  27.5471 2.15374 1.56565
LeftFoot  -16.7538 -0.680353 -16.3734
LeftToes  -5.82109e-011 1.10366e-010 -8.03124e-011
610
root  -5.49474 37.3969 34.0902 179.47 7.2099 174.993
RightUpLeg  -23.8486 -11.747 -14.8403
RightLeg  56.6933 -5.62611 -9.55887
RightFoot  -2.0154 -1.38966 16.714
RightToes  -1.74624e-010 0 -3.6325e-017
Spine  14.1561 0.438415 -16.1164
Spine1  14.5808 -4.88332 8.57042
HEad  -19.3425 7.88303 -0.629402
LeftShoulder1  0.888727 -0.685587 -14.2982
LeftArm  14.7102 5.8295 -64.3126
LeftForeArm  113.477 -78.6166 -116.426
LeftHand  -3.6766 -5.90039 36.8647
RightShoulder  0.75566 0.0203165 14.693
RightArm  -0.922192 -18.827 58.6843
RightForeArm  126.048 75.4645 134.468
RightHand  -2.72834 7.44603 -24.621
LeftUpLeg  -10.584 3.36536 5.84273
LeftLeg  33.5984 1.3376 1.32603
LeftFoot  -20.9429 -1.36283 -17.6206
LeftToes  -5.82109e-011 1.10366e-010 -8.03124e-011
611
root  -5.08203 36.6631 34.1823 177.659 6.04347 175.194
RightUpLeg  -25.5396 -9.34449 -16.4884
RightLeg  61.843 -7.04358 -14.3924
RightFoot  -3.16051 -1.06281 14.4812
RightToes  -1.74624e-010 0 -3.6325e-017
Spine  14.837 0.424412 -18.1549
Spine1  17.0273 -6.02492 9.71757
HEad  -19.4141 8.56641 -0.551963
LeftShoulder1  0.829696 -0.368623 -14.5228
LeftArm  12.5502 -3.5882 -60.8173
LeftForeArm  103.602 -79.2671 -107.115
LeftHand  -3.76162 -5.6896 38.3246
RightShoulder  0.80974 0.0406952 16.2407
RightArm  -5.0939 -21.237 60.3858
RightForeArm  101.802 78.339 113.669
RightHand  -2.88156 7.55473 -25.7373
LeftUpLeg  -11.3864 1.87638 7.05509
LeftLeg  38.9305 0.355203 0.714298
LeftFoot  -23.6341 -1.84836 -18.345
LeftToes  -5.82109e-011 1.10366e-010 -8.03124e-011
612
root  -4.52852 36.1371 34.1396 176.73 4.37238 175.503
RightUpLeg  -26.2143 -7.25859 -18.4735
RightLeg  62.1503 -6.86252 -14.3558
RightFoot  -4.08677 -0.886954 13.5224
RightToes  -1.74624e-010 0 -3.6325e-017
Spine  14.7718 0.36284 -18.9579
Spine1  18.9998 -6.55137 9.97353
HEad  -18.693 8.55407 -1.05862
LeftShoulder1  0.855509 -0.458579 -14.7065
LeftArm  9.38904 -11.9443 -58.0193
LeftForeArm  84.604 -79.5866 -91.6214
LeftHand  -3.43417 -4.821 37.96
RightShoulder  0.862991 0.106032 17.3942
RightArm  -8.33508 -23.143 60.038
RightForeArm  53.6177 78.4664 71.8437
RightHand  -2.9603 7.34039 -26.8303
LeftUpLeg  -12.2055 0.339315 8.44749
LeftLeg  42.2853 -0.280347 0.146522
LeftFoot  -25.0016 -2.15814 -19.1084
LeftToes  -5.82109e-011 1.10366e-010 -8.03124e-011
613
root  -3.78104 35.8624 33.9731 176.56 2.53415 175.674
RightUpLeg  -26.0101 -5.8148 -20.7911
RightLeg  58.5711 -6.63541 -12.0147
RightFoot  -3.0911 -1.06288 14.321
RightToes  -1.74624e-010 0 -3.6325e-017
Spine  14.6252 0.541278 -18.8508
Spine1  19.5194 -6.28729 9.66336
HEad  -17.7898 7.48492 -1.95291
LeftShoulder1  0.884556 -0.606894 -14.6273
LeftArm  6.37569 -16.9753 -56.7471
LeftForeArm  74.4626 -79.3886 -85.0948
LeftHand  -2.95372 -3.81018 36.3884
RightShoulder  0.960775 0.478083 17.635
RightArm  -10.911 -25.2259 58.1046
RightForeArm  15.3623 73.5446 42.5182
RightHand  -2.98611 6.87713 -28.02
LeftUpLeg  -12.4773 -1.05583 10.0033
LeftLeg  42.931 -1.07558 -0.643461
LeftFoot  -25.33 -2.3437 -20.1548
LeftToes  -5.82109e-011 1.10366e-010 -8.03124e-011
614
root  -2.84732 35.9375 33.7189 177.119 0.35083 175.883
RightUpLeg  -24.4861 -5.36201 -23.0344
RightLeg  52.0361 -8.09809 -11.2785
RightFoot  -0.385974 -1.54175 15.9409
RightToes  -1.74624e-010 0 -3.6325e-017
Spine  14.2281 0.687771 -17.5171
Spine1  19.2207 -5.45193 8.73491
HEad  -17.2125 5.12846 -2.17816
LeftShoulder1  0.830607 -0.386203 -14.4428
LeftArm  4.57023 -19.0562 -56.6145
LeftForeArm  80.7115 -79.3758 -92.0452
LeftHand  -2.79628 -3.5534 35.5028
RightShoulder  1.05129 0.89965 17.3381
RightArm  -14.4909 -27.1698 55.9595
RightForeArm  -7.64031 68.0796 31.2273
RightHand  -3.02839 6.29213 -29.7393
LeftUpLeg  -12.1863 -2.17214 11.8564
LeftLeg  40.5821 -2.03876 -1.45972
LeftFoot  -24.0717 -2.25222 -21.2637
LeftToes  -5.82109e-011 1.10366e-010 -8.03124e-011
615
root  -1.76047 36.3377 33.4107 178.411 -2.65401 176.083
RightUpLeg  -21.4914 -5.92305 -25.0338
RightLeg  43.6392 -11.3632 -11.6403
RightFoot  2.46244 -1.97584 16.3844
RightToes  -1.74624e-010 0 -3.6325e-017
Spine  13.5612 0.47654 -15.2468
Spine1  18.3548 -4.54798 7.30349
HEad  -16.4254 1.7951 -1.04799
LeftShoulder1  0.718705 0.1445 -14.4903
LeftArm  4.25513 -19.1177 -56.4021
LeftForeArm  96.5287 -79.0503 -106.082
LeftHand  -2.95193 -4.07002 35.4356
RightShoulder  1.05427 0.975161 16.9655
RightArm  -19.242 -28.0173 53.7506
RightForeArm  -24.0433 63.4962 25.7644
RightHand  -3.05423 5.72319 -31.4198
LeftUpLeg  -11.9955 -3.27934 13.8223
LeftLeg  35.8675 -3.0776 -1.99743
LeftFoot  -20.5324 -1.6989 -22.4207
LeftToes  -5.82109e-011 1.10366e-010 -8.03124e-011
